<svg width="25" height="25" viewBox="0 0 25 25" fill="none" xmlns="http://www.w3.org/2000/svg">
<path d="M4.6875 15.625C4.6875 16.3411 4.78109 17.0329 4.96826 17.7002C5.15544 18.3675 5.41585 18.9901 5.74951 19.5679C6.08317 20.1457 6.49007 20.6706 6.97021 21.1426C7.45036 21.6146 7.97933 22.0215 8.55713 22.3633C9.13493 22.7051 9.75749 22.9696 10.4248 23.1567C11.0921 23.3439 11.7839 23.4375 12.5 23.4375C13.0371 23.4375 13.5701 23.3846 14.0991 23.2788C14.6281 23.173 15.1367 23.0062 15.625 22.7783V24.4507C14.624 24.8169 13.5824 25 12.5 25C11.6374 25 10.8073 24.8901 10.0098 24.6704C9.21224 24.4507 8.46761 24.1333 7.77588 23.7183C7.08415 23.3032 6.44938 22.8149 5.87158 22.2534C5.29378 21.6919 4.8055 21.0612 4.40674 20.3613C4.00798 19.6615 3.69466 18.9128 3.4668 18.1152C3.23893 17.3177 3.125 16.4876 3.125 15.625C3.125 14.9414 3.19824 14.27 3.34473 13.6108C3.49121 12.9517 3.7028 12.321 3.97949 11.7188C4.25618 11.1165 4.59798 10.5469 5.00488 10.0098C5.41178 9.47266 5.87158 8.97624 6.38428 8.52051C6.43311 8.82161 6.50635 9.139 6.604 9.47266C6.70166 9.80632 6.81966 10.1359 6.95801 10.4614C7.09635 10.7869 7.25098 11.1003 7.42188 11.4014C7.59277 11.7025 7.77995 11.967 7.9834 12.1948C8.16244 12.3983 8.37402 12.5 8.61816 12.5C8.83789 12.5 9.021 12.4227 9.16748 12.2681C9.31396 12.1134 9.39128 11.9263 9.39941 11.7065C9.39941 11.617 9.38721 11.5356 9.36279 11.4624C9.33838 11.3892 9.29769 11.3159 9.24072 11.2427C8.78499 10.5754 8.43506 9.91211 8.19092 9.25293C7.94678 8.59375 7.82064 7.85319 7.8125 7.03125C7.8125 6.06283 7.99561 5.15137 8.36182 4.29688C8.72803 3.44238 9.23258 2.69775 9.87549 2.06299C10.5184 1.42822 11.263 0.927734 12.1094 0.561523C12.9557 0.195312 13.8672 0.00813802 14.8438 0H15.625V0.78125C15.625 2.22168 15.8936 3.56445 16.4307 4.80957C16.9678 6.05469 17.7409 7.18587 18.75 8.20312C19.7591 9.22038 20.5322 10.3516 21.0693 11.5967C21.6064 12.8418 21.875 14.1846 21.875 15.625H20.3125C20.3125 14.388 20.0846 13.2446 19.6289 12.1948C19.1732 11.145 18.514 10.1847 17.6514 9.31396C16.5934 8.23975 15.7633 7.06787 15.1611 5.79834C14.5589 4.52881 14.2008 3.13314 14.0869 1.61133C13.4115 1.70085 12.7889 1.9043 12.2192 2.22168C11.6496 2.53906 11.1491 2.94189 10.7178 3.43018C10.2865 3.91846 9.95687 4.46777 9.729 5.07812C9.50114 5.68848 9.38314 6.33952 9.375 7.03125C9.375 7.67415 9.46859 8.24788 9.65576 8.75244C9.84294 9.257 10.1196 9.76969 10.4858 10.2905C10.6405 10.5184 10.7585 10.7381 10.8398 10.9497C10.9212 11.1613 10.966 11.4136 10.9741 11.7065C10.9741 12.0321 10.9131 12.3372 10.791 12.6221C10.6689 12.9069 10.498 13.1551 10.2783 13.3667C10.0586 13.5783 9.81038 13.7492 9.53369 13.8794C9.257 14.0096 8.95182 14.0706 8.61816 14.0625C8.24381 14.0625 7.91423 13.9933 7.62939 13.855C7.34456 13.7166 7.09229 13.5295 6.87256 13.2935C6.65283 13.0575 6.45345 12.793 6.27441 12.5C6.09538 12.207 5.93669 11.9141 5.79834 11.6211C5.43213 12.2314 5.15544 12.8743 4.96826 13.5498C4.78109 14.2253 4.6875 14.917 4.6875 15.625ZM25 20.3125V21.875H21.875V25H20.3125V21.875H17.1875V20.3125H20.3125V17.1875H21.875V20.3125H25Z" fill="#625858"/>
</svg>
