<svg width="86" height="18" viewBox="0 0 86 18" fill="none" xmlns="http://www.w3.org/2000/svg">
<g clip-path="url(#clip0_16_59)">
<path d="M27.8225 7.5L26 1.5L24.1775 7.5H18.5L23.135 10.8075L21.3725 16.5L26 12.9825L30.635 16.5L28.8725 10.8075L33.5 7.5H27.8225Z" fill="#FFCE31"/>
</g>
<g clip-path="url(#clip1_16_59)">
<path d="M10.8225 7.5L9 1.5L7.1775 7.5H1.5L6.135 10.8075L4.3725 16.5L9 12.9825L13.635 16.5L11.8725 10.8075L16.5 7.5H10.8225Z" fill="#FFCE31"/>
</g>
<g clip-path="url(#clip2_16_59)">
<path d="M44.8225 7.5L43 1.5L41.1775 7.5H35.5L40.135 10.8075L38.3725 16.5L43 12.9825L47.635 16.5L45.8725 10.8075L50.5 7.5H44.8225Z" fill="#FFCE31"/>
</g>
<g clip-path="url(#clip3_16_59)">
<path d="M61.8225 7.5L60 1.5L58.1775 7.5H52.5L57.135 10.8075L55.3725 16.5L60 12.9825L64.635 16.5L62.8725 10.8075L67.5 7.5H61.8225Z" fill="#FFCE31"/>
</g>
<g clip-path="url(#clip4_16_59)">
<path d="M78.8225 7.5L77 1.5L75.1775 7.5H69.5L74.135 10.8075L72.3725 16.5L77 12.9825L81.635 16.5L79.8725 10.8075L84.5 7.5H78.8225Z" fill="#FFCE31"/>
</g>
<defs>
<clipPath id="clip0_16_59">
<rect width="18" height="18" fill="white" transform="translate(17)"/>
</clipPath>
<clipPath id="clip1_16_59">
<rect width="18" height="18" fill="white"/>
</clipPath>
<clipPath id="clip2_16_59">
<rect width="18" height="18" fill="white" transform="translate(34)"/>
</clipPath>
<clipPath id="clip3_16_59">
<rect width="18" height="18" fill="white" transform="translate(51)"/>
</clipPath>
<clipPath id="clip4_16_59">
<rect width="18" height="18" fill="white" transform="translate(68)"/>
</clipPath>
</defs>
</svg>
