<svg width="100" height="100" viewBox="0 0 100 100" fill="none" xmlns="http://www.w3.org/2000/svg">
<circle cx="50" cy="50" r="49.5" fill="#F7EEEE" stroke="#F27706"/>
<path d="M64.5834 39.0792H52.0834V51.5792H47.9167V39.0792H35.4167V34.9125H47.9167V22.4125H52.0834V34.9125H64.5834V39.0792Z" fill="#F27706"/>
<path d="M16.0568 74V65.2727H21.3239V66.2102H17.1136V69.1591H21.0511V70.0966H17.1136V73.0625H21.392V74H16.0568ZM23.7401 65.2727L25.9901 68.9034H26.0582L28.3082 65.2727H29.5526L26.8082 69.6364L29.5526 74H28.3082L26.0582 70.4375H25.9901L23.7401 74H22.4957L25.3082 69.6364L22.4957 65.2727H23.7401ZM31.9847 65.2727V74H30.9279V65.2727H31.9847ZM34.1037 74V65.2727H37.1548C37.7628 65.2727 38.2642 65.3778 38.6591 65.5881C39.054 65.7955 39.348 66.0753 39.5412 66.4276C39.7344 66.777 39.831 67.1648 39.831 67.5909C39.831 67.9659 39.7642 68.2756 39.6307 68.5199C39.5 68.7642 39.3267 68.9574 39.1108 69.0994C38.8977 69.2415 38.6662 69.3466 38.4162 69.4148V69.5C38.6832 69.517 38.9517 69.6108 39.2216 69.7812C39.4915 69.9517 39.7173 70.196 39.8991 70.5142C40.081 70.8324 40.1719 71.2216 40.1719 71.6818C40.1719 72.1193 40.0724 72.5128 39.8736 72.8622C39.6747 73.2116 39.3608 73.4886 38.9318 73.6932C38.5028 73.8977 37.9446 74 37.2571 74H34.1037ZM35.1605 73.0625H37.2571C37.9474 73.0625 38.4375 72.929 38.7273 72.6619C39.0199 72.392 39.1662 72.0653 39.1662 71.6818C39.1662 71.3864 39.0909 71.1136 38.9403 70.8636C38.7898 70.6108 38.5753 70.4091 38.2969 70.2585C38.0185 70.1051 37.6889 70.0284 37.3082 70.0284H35.1605V73.0625ZM35.1605 69.108H37.1207C37.4389 69.108 37.7259 69.0455 37.9815 68.9205C38.2401 68.7955 38.4446 68.6193 38.5952 68.392C38.7486 68.1648 38.8253 67.8977 38.8253 67.5909C38.8253 67.2074 38.6918 66.8821 38.4247 66.6151C38.1577 66.3452 37.7344 66.2102 37.1548 66.2102H35.1605V69.108ZM42.9652 65.2727V74H41.9084V65.2727H42.9652ZM45.0842 74V65.2727H48.033C48.7148 65.2727 49.2745 65.3892 49.712 65.6222C50.1495 65.8523 50.4734 66.169 50.6836 66.5724C50.8938 66.9759 50.9989 67.4347 50.9989 67.9489C50.9989 68.4631 50.8938 68.919 50.6836 69.3168C50.4734 69.7145 50.1509 70.027 49.7163 70.2543C49.2816 70.4787 48.7262 70.5909 48.0501 70.5909H45.6637V69.6364H48.016C48.4819 69.6364 48.8569 69.5682 49.141 69.4318C49.4279 69.2955 49.6353 69.1023 49.7631 68.8523C49.8938 68.5994 49.9592 68.2983 49.9592 67.9489C49.9592 67.5994 49.8938 67.294 49.7631 67.0327C49.6325 66.7713 49.4237 66.5696 49.1367 66.4276C48.8498 66.2827 48.4705 66.2102 47.9989 66.2102H46.141V74H45.0842ZM49.1921 70.0795L51.3398 74H50.1126L47.9989 70.0795H49.1921ZM56.1349 65.2727H57.3963L60.3622 72.517H60.4645L63.4304 65.2727H64.6918V74H63.7031V67.3693H63.6179L60.8906 74H59.9361L57.2088 67.3693H57.1236V74H56.1349V65.2727ZM67.1687 74H66.0607L69.2653 65.2727H70.3562L73.5607 74H72.4528L69.8448 66.6534H69.7766L67.1687 74ZM67.5778 70.5909H72.0437V71.5284H67.5778V70.5909ZM75.9769 65.2727V74H74.9201V65.2727H75.9769ZM82.8686 67.4545C82.8175 67.0227 82.6101 66.6875 82.2464 66.4489C81.8828 66.2102 81.4368 66.0909 80.9084 66.0909C80.522 66.0909 80.1839 66.1534 79.8942 66.2784C79.6072 66.4034 79.3828 66.5753 79.2209 66.794C79.0618 67.0128 78.9822 67.2614 78.9822 67.5398C78.9822 67.7727 79.0376 67.973 79.1484 68.1406C79.2621 68.3054 79.407 68.4432 79.5831 68.554C79.7592 68.6619 79.9439 68.7514 80.1371 68.8224C80.3303 68.8906 80.5078 68.946 80.6697 68.9886L81.5561 69.2273C81.7834 69.2869 82.0362 69.3693 82.3146 69.4744C82.5959 69.5795 82.8643 69.723 83.12 69.9048C83.3786 70.0838 83.5916 70.3139 83.7592 70.5952C83.9268 70.8764 84.0107 71.2216 84.0107 71.6307C84.0107 72.1023 83.8871 72.5284 83.6399 72.9091C83.3956 73.2898 83.0376 73.5923 82.5661 73.8168C82.0973 74.0412 81.5277 74.1534 80.8572 74.1534C80.2322 74.1534 79.6911 74.0526 79.2337 73.8509C78.7791 73.6491 78.4212 73.3679 78.1598 73.0071C77.9013 72.6463 77.755 72.2273 77.7209 71.75H78.8118C78.8402 72.0795 78.951 72.3523 79.1442 72.5682C79.3402 72.7812 79.5874 72.9403 79.8857 73.0455C80.1868 73.1477 80.5107 73.1989 80.8572 73.1989C81.2607 73.1989 81.6229 73.1335 81.9439 73.0028C82.2649 72.8693 82.5192 72.6847 82.7067 72.4489C82.8942 72.2102 82.9879 71.9318 82.9879 71.6136C82.9879 71.3239 82.907 71.0881 82.745 70.9062C82.5831 70.7244 82.37 70.5767 82.1058 70.4631C81.8416 70.3494 81.5561 70.25 81.2493 70.1648L80.1754 69.858C79.4936 69.6619 78.9538 69.3821 78.5561 69.0185C78.1584 68.6548 77.9595 68.179 77.9595 67.5909C77.9595 67.1023 78.0916 66.6761 78.3558 66.3125C78.6229 65.946 78.9808 65.6619 79.4297 65.4602C79.8814 65.2557 80.3857 65.1534 80.9425 65.1534C81.505 65.1534 82.005 65.2543 82.4425 65.456C82.88 65.6548 83.2266 65.9276 83.4822 66.2741C83.7408 66.6207 83.8771 67.0142 83.8913 67.4545H82.8686Z" fill="#F48A28"/>
</svg>
