<svg width="32" height="32" viewBox="0 0 32 32" fill="none" xmlns="http://www.w3.org/2000/svg">
<path d="M11.094 5.969L10.781 6.031C4.312 7.469 3.031 13.813 3.031 13.813L3 13.905V26H29V20H28C27.434 20 27 19.566 27 19C27 18.434 27.434 18 28 18H29V13.344L28.375 13.063L11.375 6.063L11.094 5.969ZM10.969 8.094L13.75 9.25C13.309 9.434 13 9.691 13 10C13 10.55 13.895 11 15 11C15.758 11 16.41 10.781 16.75 10.469L22.906 13H5.375C5.977 11.52 7.469 9 10.969 8.094ZM5 15H8.094C8.03505 15.1603 8.00328 15.3293 8 15.5C8 15.8978 8.15804 16.2794 8.43934 16.5607C8.72064 16.842 9.10218 17 9.5 17C9.89782 17 10.2794 16.842 10.5607 16.5607C10.842 16.2794 11 15.8978 11 15.5C11 15.328 10.96 15.156 10.906 15H27V16.406C25.89 16.848 25 17.742 25 19C25 20.258 25.89 21.152 27 21.594V24H14.719C14.891 23.707 15 23.363 15 23C15 22.4696 14.7893 21.9609 14.4142 21.5858C14.0391 21.2107 13.5304 21 13 21C12.4696 21 11.9609 21.2107 11.5858 21.5858C11.2107 21.9609 11 22.4696 11 23C11 23.363 11.11 23.707 11.281 24H5V15ZM19.5 17C19.1022 17 18.7206 17.158 18.4393 17.4393C18.158 17.7206 18 18.1022 18 18.5C18 18.8978 18.158 19.2794 18.4393 19.5607C18.7206 19.842 19.1022 20 19.5 20C19.8978 20 20.2794 19.842 20.5607 19.5607C20.842 19.2794 21 18.8978 21 18.5C21 18.1022 20.842 17.7206 20.5607 17.4393C20.2794 17.158 19.8978 17 19.5 17Z" fill="#5B5959"/>
</svg>
