<svg width="51" height="51" viewBox="0 0 51 51" fill="none" xmlns="http://www.w3.org/2000/svg">
<circle cx="25.5" cy="25.5" r="25.5" fill="#F4E2D1"/>
<g clip-path="url(#clip0_320_2)">
<path d="M18.8267 24.3867C20.7467 28.16 23.84 31.24 27.6133 33.1733L30.5467 30.24C30.9067 29.88 31.44 29.76 31.9067 29.92C33.4 30.4133 35.0133 30.68 36.6667 30.68C37.4 30.68 38 31.28 38 32.0133V36.6667C38 37.4 37.4 38 36.6667 38C24.1467 38 14 27.8533 14 15.3333C14 14.6 14.6 14 15.3333 14H20C20.7333 14 21.3333 14.6 21.3333 15.3333C21.3333 17 21.6 18.6 22.0933 20.0933C22.24 20.56 22.1333 21.08 21.76 21.4533L18.8267 24.3867Z" fill="#EB3223"/>
</g>
<defs>
<clipPath id="clip0_320_2">
<rect width="32" height="32" fill="white" transform="translate(10 10)"/>
</clipPath>
</defs>
</svg>
